<svg version="1.1" id="Layer_1" xmlns="http://www.w3.org/2000/svg" xmlns:xlink="http://www.w3.org/1999/xlink" x="0px" y="0px"
	height="10px" width="50px" viewBox="0 0 299 92" enable-background="new 0 0 299 92" xml:space="preserve">
<path fill="#FDFDFD" opacity="1.000000" stroke="none" 
	d="
M212.000000,93.000000 
	C141.333359,93.000000 71.166710,93.000000 1.000047,93.000000 
	C1.000031,62.333363 1.000031,31.666727 1.000016,1.000068 
	C100.666603,1.000045 200.333206,1.000045 299.999878,1.000023 
	C299.999908,31.666597 299.999908,62.333195 299.999939,92.999893 
	C270.833344,93.000000 241.666672,93.000000 212.000000,93.000000 
M67.913910,32.365463 
	C67.273132,31.964401 66.632355,31.563339 65.414070,30.865707 
	C64.984230,30.893906 64.554390,30.922104 63.584965,30.574587 
	C61.685375,30.701273 59.785786,30.827959 57.237118,30.861513 
	C56.828442,30.977249 56.419765,31.092985 55.371441,31.239069 
	C54.942680,31.839151 54.513924,32.439232 54.011009,33.020584 
	C54.011009,33.020584 54.041969,33.090523 53.478561,33.313587 
	C53.088211,33.881195 52.697861,34.448803 52.013199,35.831532 
	C52.094730,37.549892 52.176266,39.268253 52.249668,41.625359 
	C52.840500,42.068832 53.431335,42.512306 53.998737,42.999432 
	C53.998737,42.999432 54.043507,42.978237 54.178913,43.612236 
	C54.789505,44.006836 55.400097,44.401436 56.577923,45.097309 
	C57.004871,45.083862 57.431824,45.070419 58.253281,45.660778 
	C59.513744,46.081390 60.774212,46.502003 62.061306,46.991081 
	C62.061306,46.991081 62.118999,46.945602 62.539593,47.288765 
	C63.044888,47.804237 63.550179,48.319710 64.093185,49.569153 
	C63.397224,51.413372 62.701263,53.257591 61.204884,55.021709 
	C60.134506,55.056522 59.064129,55.091339 57.253685,54.928349 
	C52.965118,52.109249 52.887638,52.120712 51.014572,55.851513 
	C57.979271,61.548405 63.020634,59.533535 68.435394,54.152584 
	C70.162262,51.620636 71.319962,49.117439 68.109840,46.155571 
	C67.485100,45.737644 66.860352,45.319717 66.078575,44.217880 
	C65.383492,43.855762 64.688416,43.493641 63.424232,42.870628 
	C63.008537,42.889793 62.592846,42.908955 61.828564,42.418190 
	C61.213242,42.054634 60.597923,41.691078 59.384983,41.035378 
	C58.941921,41.016422 58.498863,40.997471 57.808331,40.379147 
	C57.226082,39.868484 56.643833,39.357822 56.100655,38.232224 
	C56.067970,37.823795 56.035286,37.415371 56.294029,36.543030 
	C56.772991,35.996647 57.251953,35.450268 57.890297,34.955360 
	C57.890297,34.955360 57.924412,34.791386 58.795223,34.697556 
	C60.535366,34.698669 62.275513,34.699783 64.657509,34.996925 
	C65.128059,34.989620 65.598610,34.982311 66.352928,35.235329 
	C66.801659,35.126148 67.250381,35.016968 67.905411,34.885101 
	C67.905411,34.885101 67.903717,34.677570 68.199455,34.451317 
	C68.108192,34.024952 68.016930,33.598583 67.977142,33.086887 
	C67.977142,33.086887 67.885117,33.048634 67.913910,32.365463 
M128.025604,32.994129 
	C128.025604,32.994129 128.032715,33.061405 127.329231,33.063766 
	C126.891769,33.712444 126.454308,34.361122 125.998680,35.001057 
	C125.998680,35.001057 126.011322,35.018600 125.424179,35.240170 
	C125.024826,35.839249 124.625473,36.438328 123.902588,37.574940 
	C123.906639,37.992500 123.910683,38.410065 123.146721,39.128345 
	C121.572197,43.213615 120.602730,47.254452 123.996651,50.994133 
	C123.996651,50.994133 124.022079,50.987465 123.987869,51.644009 
	C124.680054,52.638901 125.372231,53.633789 126.601730,55.167179 
	C130.188660,58.710342 134.618805,59.945618 139.383942,58.935818 
	C141.993393,58.382835 145.741776,57.264122 146.512939,55.387905 
	C147.631287,52.667023 147.402115,48.553482 146.008423,45.973454 
	C145.249374,44.568275 140.900375,45.102318 138.170486,44.761742 
	C138.036224,45.203079 137.901978,45.644413 137.767715,46.085747 
	C138.586441,46.726803 139.516647,47.268284 140.198441,48.031635 
	C141.292130,49.256138 142.221375,50.627525 143.220108,51.936836 
	C141.842987,52.980221 140.432343,54.932259 139.095535,54.882931 
	C136.060394,54.770931 133.061600,53.674458 129.928741,52.303028 
	C129.315475,51.808411 128.702209,51.313793 128.088913,50.207619 
	C128.009750,49.813194 127.930573,49.418770 127.940224,48.131470 
	C127.884674,45.742500 127.829124,43.353527 127.966515,40.335926 
	C127.980927,39.897781 127.995338,39.459637 128.547302,38.712799 
	C128.981506,38.117882 129.415726,37.522964 129.942505,36.937504 
	C129.942505,36.937504 129.926834,36.845776 130.493347,36.627647 
	C130.989761,36.081467 131.486160,35.535286 131.998215,35.001343 
	C131.998215,35.001343 131.991531,34.985287 132.905945,35.005341 
	C135.953674,34.969788 139.001404,34.934238 142.081146,34.970852 
	C142.081146,34.970852 142.145859,34.925655 142.634201,35.275806 
	C143.771957,35.604561 145.189316,38.818089 145.993896,34.985310 
	C145.993896,34.985310 145.955307,34.917400 146.507065,34.725578 
	C146.855988,34.470051 147.204910,34.214520 147.553833,33.958984 
	C147.020187,33.668297 146.486526,33.377613 145.991028,33.016815 
	C145.991028,33.016815 145.916092,33.044296 145.799957,32.407166 
	C145.187149,32.018154 144.574326,31.629145 143.343201,30.979488 
	C142.896378,30.985909 142.449539,30.992329 141.433243,30.578278 
	C138.193665,28.471708 135.061050,28.687178 131.339874,30.979422 
	C130.910095,31.097929 130.480301,31.216436 129.511597,31.493292 
	C129.032333,32.009399 128.553055,32.525505 128.025604,32.994129 
M215.850784,47.833866 
	C219.014984,52.254829 221.110855,57.874634 227.953522,59.347034 
	C227.953522,50.301052 228.064957,42.178509 227.846634,34.064838 
	C227.809128,32.671082 226.367355,31.315115 225.574280,29.941689 
	C224.983978,31.314524 223.942627,32.668591 223.884583,34.063572 
	C223.677170,39.048649 223.803391,44.047611 223.803391,49.509678 
	C221.299515,47.651100 219.638916,46.418468 217.348770,44.816147 
	C213.677689,39.583763 210.965836,33.438381 204.203842,29.885202 
	C204.203842,40.318073 204.203842,49.553795 204.203842,58.748966 
	C205.534286,58.748966 206.608307,58.748966 208.375290,58.748966 
	C208.375290,52.080410 208.375290,45.634426 208.375290,39.659821 
	C210.940979,42.242046 213.360092,44.676739 215.850784,47.833866 
M249.276443,54.961842 
	C240.064423,50.718380 241.275681,42.680798 244.840195,36.749680 
	C246.854935,33.397316 255.425781,33.044830 261.221252,36.497284 
	C260.774994,34.732216 260.854980,33.012928 260.151184,32.586113 
	C254.370224,29.080244 247.984879,28.759920 242.451508,33.145721 
	C237.750229,36.871998 236.242523,46.305508 238.899170,51.275303 
	C242.675644,58.339912 248.701447,59.917492 256.750397,58.956848 
	C262.133026,57.254887 264.549316,53.277802 262.876892,47.403870 
	C261.397614,42.208385 257.042206,46.021790 254.166870,44.951260 
	C253.882889,45.386822 253.598907,45.822380 253.314926,46.257942 
	C254.838272,47.509483 256.361603,48.761024 258.136078,50.218880 
	C258.024231,51.406200 257.873322,53.007610 257.704071,54.804165 
	C254.931534,54.926640 252.461685,55.035744 249.276443,54.961842 
M85.463715,33.408100 
	C85.010925,34.607655 84.558128,35.807209 83.832214,37.712322 
	C80.984276,44.619511 78.136345,51.526699 75.288406,58.433891 
	C75.855392,58.835461 76.422379,59.237034 76.989372,59.638603 
	C78.190536,58.742714 79.915169,58.100090 80.494255,56.903217 
	C82.199791,53.378166 83.767082,50.857243 88.631554,51.021084 
	C93.222672,51.175720 95.928978,52.216125 97.324486,56.781792 
	C97.686447,57.966038 100.038223,58.542095 101.476021,59.397511 
	C101.864838,58.954517 102.253654,58.511520 102.642471,58.068527 
	C99.724350,51.048138 96.806229,44.027752 93.954704,36.309288 
	C93.306099,35.198631 92.657494,34.087975 92.045921,32.279099 
	C91.889847,31.862509 91.733765,31.445919 91.168907,30.677170 
	C89.583122,30.794884 87.997345,30.912600 85.987160,31.579895 
	C85.987061,32.042122 85.986961,32.504353 85.463715,33.408100 
M173.317963,45.108761 
	C176.032166,42.759533 177.687103,40.208527 176.322525,36.298500 
	C174.881607,32.169788 162.388062,27.755545 158.925003,30.463619 
	C158.373245,30.895084 157.933487,31.835505 157.928085,32.544342 
	C157.861115,41.315479 157.884354,50.087307 157.884354,59.194443 
	C159.708633,58.938625 160.909760,58.770195 162.147095,58.596684 
	C162.147095,55.535374 162.012466,52.860073 162.216965,50.210953 
	C162.293015,49.225750 162.953049,47.900856 163.742828,47.487396 
	C164.292343,47.199722 165.797867,47.966564 166.389084,48.671146 
	C168.367599,51.029007 169.941269,53.744785 172.036240,55.980247 
	C173.416779,57.453377 175.427109,58.336323 177.155441,59.483532 
	C177.504608,58.997181 177.853760,58.510830 178.202911,58.024479 
	C176.243774,54.993916 174.142624,52.041145 172.413742,48.884480 
	C171.907928,47.960930 172.461227,46.457317 173.317963,45.108761 
M286.239136,59.083416 
	C288.761322,59.093407 291.104919,58.952778 289.177094,54.860043 
	C285.643646,54.860043 281.907715,54.860043 277.951904,54.860043 
	C277.951904,47.400253 278.097656,40.444973 277.824341,33.506207 
	C277.772003,32.176910 276.070099,30.912586 275.129211,29.618288 
	C274.161469,30.574881 272.378235,31.510948 272.353546,32.491276 
	C272.134247,41.205555 272.225983,49.927666 272.225983,59.083977 
	C277.044250,59.083977 281.172607,59.083977 286.239136,59.083416 
M36.100735,56.188782 
	C36.360516,61.049351 39.447842,58.536232 41.924831,58.770683 
	C41.924831,50.035152 42.050175,41.745548 41.798218,33.467430 
	C41.757469,32.128616 40.040066,30.840836 39.097683,29.529467 
	C38.098385,30.956465 36.297543,32.349655 36.235687,33.816196 
	C35.934910,40.947105 36.099716,48.097652 36.100735,56.188782 
M11.801771,51.457668 
	C11.801771,53.884880 11.801771,56.312092 11.801771,58.807571 
	C17.468143,58.807571 22.562391,58.807571 27.993912,58.807571 
	C27.854635,57.414871 27.737822,56.246788 27.598040,54.849037 
	C23.612268,54.849037 20.002508,54.849037 15.954943,54.849037 
	C15.954943,46.688389 15.954943,38.786732 15.954943,31.057692 
	C12.689785,30.060144 11.645538,31.016954 11.748621,34.010628 
	C11.937336,39.491219 11.801983,44.982971 11.801771,51.457668 
M192.109100,49.464828 
	C192.109100,43.346668 192.109100,37.228508 192.109100,31.018162 
	C190.516830,31.018162 189.335373,31.018162 188.108963,31.018162 
	C188.108963,40.427189 188.108963,49.512539 188.108963,58.954891 
	C189.521942,58.875832 190.718094,58.808903 192.109100,58.731071 
	C192.109100,55.738968 192.109100,53.096363 192.109100,49.464828 
z"/>
<path fill="#1C1C1C" opacity="1.000000" stroke="none" 
	d="
M172.923523,45.164169 
	C172.461227,46.457317 171.907928,47.960930 172.413742,48.884480 
	C174.142624,52.041145 176.243774,54.993916 178.202911,58.024479 
	C177.853760,58.510830 177.504608,58.997181 177.155441,59.483532 
	C175.427109,58.336323 173.416779,57.453377 172.036240,55.980247 
	C169.941269,53.744785 168.367599,51.029007 166.389084,48.671146 
	C165.797867,47.966564 164.292343,47.199722 163.742828,47.487396 
	C162.953049,47.900856 162.293015,49.225750 162.216965,50.210953 
	C162.012466,52.860073 162.147095,55.535374 162.147095,58.596684 
	C160.909760,58.770195 159.708633,58.938625 157.884354,59.194443 
	C157.884354,50.087307 157.861115,41.315479 157.928085,32.544342 
	C157.933487,31.835505 158.373245,30.895084 158.925003,30.463619 
	C162.388062,27.755545 174.881607,32.169788 176.322525,36.298500 
	C177.687103,40.208527 176.032166,42.759533 172.923523,45.164169 
M165.366302,44.573971 
	C166.900040,44.039963 168.467377,43.585236 169.959351,42.952728 
	C172.018112,42.079937 173.241547,36.065231 171.386337,35.391262 
	C168.686264,34.410366 165.391846,33.661858 162.758652,34.357620 
	C160.757828,34.886295 162.282532,42.829498 165.366302,44.573971 
z"/>
<path fill="#202020" opacity="1.000000" stroke="none" 
	d="
M93.888107,37.007366 
	C96.806229,44.027752 99.724350,51.048138 102.642471,58.068527 
	C102.253654,58.511520 101.864838,58.954517 101.476021,59.397511 
	C100.038223,58.542095 97.686447,57.966038 97.324486,56.781792 
	C95.928978,52.216125 93.222672,51.175720 88.631554,51.021084 
	C83.767082,50.857243 82.199791,53.378166 80.494255,56.903217 
	C79.915169,58.100090 78.190536,58.742714 76.989372,59.638603 
	C76.422379,59.237034 75.855392,58.835461 75.288406,58.433891 
	C78.136345,51.526699 80.984276,44.619511 84.320587,37.282440 
	C85.201591,35.557232 85.594231,34.261906 85.986862,32.966579 
	C85.986961,32.504353 85.987061,32.042122 86.567551,31.331413 
	C88.624519,31.065063 90.101097,31.047195 91.577682,31.029329 
	C91.733765,31.445919 91.889847,31.862509 92.000488,32.999245 
	C92.599403,34.815384 93.243752,35.911377 93.888107,37.007366 
M90.020874,38.374298 
	C90.008278,37.930603 89.995682,37.486908 89.951462,36.408150 
	C89.529060,36.064892 89.106659,35.721638 88.684258,35.378384 
	C88.461586,35.932640 88.238907,36.486897 88.004913,37.708260 
	C87.901932,38.132278 87.798950,38.556297 87.065224,39.079784 
	C86.733543,39.775928 86.401871,40.472076 86.133156,41.919720 
	C85.612923,43.658810 85.092690,45.397896 84.488449,47.417805 
	C87.376839,47.417805 89.966423,47.417805 92.516968,47.417805 
	C92.284584,44.964558 92.105232,43.071220 91.955269,40.535522 
	C91.402603,40.017052 90.849930,39.498577 90.020874,38.374298 
z"/>
<path fill="#1F1F1F" opacity="1.000000" stroke="none" 
	d="
M255.989868,58.837250 
	C248.701447,59.917492 242.675644,58.339912 238.899170,51.275303 
	C236.242523,46.305508 237.750229,36.871998 242.451508,33.145721 
	C247.984879,28.759920 254.370224,29.080244 260.151184,32.586113 
	C260.854980,33.012928 260.774994,34.732216 261.221252,36.497284 
	C255.425781,33.044830 246.854935,33.397316 244.840195,36.749680 
	C241.275681,42.680798 240.064423,50.718380 249.721771,55.405670 
	C252.108017,56.845413 254.048935,57.841331 255.989868,58.837250 
z"/>
<path fill="#1D1D1D" opacity="1.000000" stroke="none" 
	d="
M123.914734,38.827625 
	C123.910683,38.410065 123.906639,37.992500 124.386177,37.288902 
	C125.250282,36.341442 125.630806,35.680019 126.011322,35.018600 
	C126.011322,35.018600 125.998680,35.001057 126.327370,34.969360 
	C127.114944,34.312244 127.573830,33.686825 128.032715,33.061405 
	C128.032715,33.061405 128.025604,32.994129 128.365967,33.032448 
	C129.154388,32.492153 129.602463,31.913548 130.050522,31.334942 
	C130.480301,31.216436 130.910095,31.097929 132.132385,31.054474 
	C135.950851,31.085934 138.976776,31.042339 142.002716,30.998749 
	C142.449539,30.992329 142.896378,30.985909 143.670746,31.423199 
	C144.637558,32.259369 145.276825,32.651833 145.916092,33.044296 
	C145.916092,33.044296 145.991028,33.016815 145.947098,33.356632 
	C145.920547,34.103432 145.937927,34.510418 145.955307,34.917400 
	C145.955307,34.917400 145.993896,34.985310 145.579788,34.950958 
	C144.159073,34.919624 143.152466,34.922642 142.145859,34.925659 
	C142.145859,34.925655 142.081146,34.970852 141.959518,34.552353 
	C138.394379,32.551323 134.977859,31.280890 131.991531,34.985287 
	C131.991531,34.985287 131.998215,35.001343 131.656769,34.981812 
	C130.852493,35.590107 130.389664,36.217941 129.926834,36.845776 
	C129.926834,36.845776 129.942505,36.937504 129.561218,36.951870 
	C128.789886,37.651321 128.399811,38.336407 128.009750,39.021492 
	C127.995338,39.459637 127.980927,39.897781 127.494507,40.730461 
	C125.609009,43.935432 124.453537,46.718788 127.851402,49.024349 
	C127.930573,49.418770 128.009750,49.813194 128.087280,50.860725 
	C128.739777,52.001949 129.393906,52.490070 130.048019,52.978188 
	C133.061600,53.674458 136.060394,54.770931 139.095535,54.882931 
	C140.432343,54.932259 141.842987,52.980221 143.220108,51.936836 
	C142.221375,50.627525 141.292130,49.256138 140.198441,48.031635 
	C139.516647,47.268284 138.586441,46.726803 137.767715,46.085747 
	C137.901978,45.644413 138.036224,45.203079 138.170486,44.761742 
	C140.900375,45.102318 145.249374,44.568275 146.008423,45.973454 
	C147.402115,48.553482 147.631287,52.667023 146.512939,55.387905 
	C145.741776,57.264122 141.993393,58.382835 139.383942,58.935818 
	C134.618805,59.945618 130.188660,58.710342 126.378296,54.551205 
	C125.443932,52.952641 124.733002,51.970055 124.022079,50.987465 
	C124.022079,50.987465 123.996651,50.994133 124.047668,50.523571 
	C124.037376,46.311214 123.976059,42.569420 123.914734,38.827625 
z"/>
<path fill="#393939" opacity="1.000000" stroke="none" 
	d="
M285.770050,59.083694 
	C281.172607,59.083977 277.044250,59.083977 272.225983,59.083977 
	C272.225983,49.927666 272.134247,41.205555 272.353546,32.491276 
	C272.378235,31.510948 274.161469,30.574881 275.129211,29.618290 
	C276.070099,30.912586 277.772003,32.176910 277.824341,33.506207 
	C278.097656,40.444973 277.951904,47.400253 277.951904,54.860043 
	C281.907715,54.860043 285.643646,54.860043 289.177094,54.860043 
	C291.104919,58.952778 288.761322,59.093407 285.770050,59.083694 
z"/>
<path fill="#252525" opacity="1.000000" stroke="none" 
	d="
M56.002602,37.006943 
	C56.035286,37.415371 56.067970,37.823795 56.090458,38.883774 
	C56.738773,40.016392 57.397285,40.497456 58.055801,40.978519 
	C58.498863,40.997471 58.941921,41.016422 59.736820,41.494026 
	C60.784821,42.277824 61.480988,42.602970 62.177151,42.928120 
	C62.592846,42.908955 63.008537,42.889793 63.769150,43.326912 
	C64.821251,44.156063 65.528427,44.528931 66.235611,44.901794 
	C66.860352,45.319717 67.485100,45.737644 68.059219,46.933838 
	C67.998650,50.018806 67.988708,52.325512 67.978775,54.632214 
	C63.020634,59.533535 57.979271,61.548405 51.014572,55.851513 
	C52.887638,52.120712 52.965118,52.109249 57.696533,55.359451 
	C59.428020,55.560974 60.716663,55.331394 62.005302,55.101814 
	C62.701263,53.257591 63.397224,51.413372 64.047310,48.889709 
	C63.373955,47.788712 62.746475,47.367157 62.118999,46.945602 
	C62.118999,46.945602 62.061306,46.991081 61.959892,46.598557 
	C60.525242,45.823009 59.192009,45.439991 57.858772,45.056976 
	C57.431824,45.070419 57.004871,45.083862 56.252438,44.642632 
	C55.299137,43.784718 54.671322,43.381477 54.043507,42.978237 
	C54.043507,42.978237 53.998737,42.999432 53.983215,42.675232 
	C53.397728,41.896225 52.827763,41.441418 52.257797,40.986614 
	C52.176266,39.268253 52.094730,37.549892 52.455128,35.386047 
	C53.278694,34.323883 53.660332,33.707203 54.041969,33.090523 
	C54.041969,33.090523 54.011009,33.020584 54.350170,32.994118 
	C55.129917,32.381340 55.570503,31.795029 56.011089,31.208719 
	C56.419765,31.092985 56.828442,30.977249 58.006214,30.943058 
	C60.558392,30.999836 62.341469,30.975071 64.124550,30.950304 
	C64.554390,30.922104 64.984230,30.893906 65.742996,31.314789 
	C66.676323,32.192123 67.280724,32.620380 67.885117,33.048634 
	C67.885117,33.048634 67.977142,33.086887 67.940811,33.380310 
	C67.904221,34.008343 67.903969,34.342957 67.903717,34.677570 
	C67.903717,34.677570 67.905411,34.885101 67.530258,34.898407 
	C66.793121,34.932812 66.431145,34.953907 66.069160,34.975006 
	C65.598610,34.982311 65.128059,34.989620 64.253494,34.498119 
	C61.663883,32.688156 59.518402,31.677084 57.924412,34.791386 
	C57.924412,34.791386 57.890297,34.955360 57.499359,34.981667 
	C56.739819,35.674297 56.371212,36.340622 56.002602,37.006943 
z"/>
<path fill="#424242" opacity="1.000000" stroke="none" 
	d="
M36.100208,55.715015 
	C36.099716,48.097652 35.934910,40.947105 36.235687,33.816196 
	C36.297543,32.349655 38.098385,30.956465 39.097683,29.529467 
	C40.040066,30.840836 41.757469,32.128616 41.798218,33.467430 
	C42.050175,41.745548 41.924831,50.035152 41.924831,58.770683 
	C39.447842,58.536232 36.360516,61.049351 36.100208,55.715015 
z"/>
<path fill="#272727" opacity="1.000000" stroke="none" 
	d="
M217.978317,45.185837 
	C219.638916,46.418468 221.299515,47.651100 223.803391,49.509678 
	C223.803391,44.047611 223.677170,39.048649 223.884583,34.063572 
	C223.942627,32.668591 224.983978,31.314524 225.574280,29.941689 
	C226.367355,31.315115 227.809128,32.671082 227.846634,34.064838 
	C228.064957,42.178509 227.953522,50.301052 227.953522,59.347034 
	C221.110855,57.874634 219.014984,52.254829 216.141571,47.425255 
	C216.947662,46.406376 217.462997,45.796108 217.978317,45.185837 
z"/>
<path fill="#111111" opacity="1.000000" stroke="none" 
	d="
M217.663544,45.000992 
	C217.462997,45.796108 216.947662,46.406376 216.105774,47.064034 
	C213.360092,44.676739 210.940979,42.242046 208.375290,39.659821 
	C208.375290,45.634426 208.375290,52.080410 208.375290,58.748966 
	C206.608307,58.748966 205.534286,58.748966 204.203842,58.748966 
	C204.203842,49.553795 204.203842,40.318073 204.203842,29.885202 
	C210.965836,33.438381 213.677689,39.583763 217.663544,45.000992 
z"/>
<path fill="#0F0F0F" opacity="1.000000" stroke="none" 
	d="
M11.801769,50.963867 
	C11.801983,44.982971 11.937336,39.491219 11.748621,34.010628 
	C11.645538,31.016954 12.689785,30.060144 15.954943,31.057692 
	C15.954943,38.786732 15.954943,46.688389 15.954943,54.849037 
	C20.002508,54.849037 23.612268,54.849037 27.598040,54.849037 
	C27.737822,56.246788 27.854635,57.414871 27.993912,58.807571 
	C22.562391,58.807571 17.468143,58.807571 11.801771,58.807571 
	C11.801771,56.312092 11.801771,53.884880 11.801769,50.963867 
z"/>
<path fill="#0E0E0E" opacity="1.000000" stroke="none" 
	d="
M192.109100,49.959293 
	C192.109100,53.096363 192.109100,55.738968 192.109100,58.731071 
	C190.718094,58.808903 189.521942,58.875832 188.108963,58.954891 
	C188.108963,49.512539 188.108963,40.427189 188.108963,31.018162 
	C189.335373,31.018162 190.516830,31.018162 192.109100,31.018162 
	C192.109100,37.228508 192.109100,43.346668 192.109100,49.959293 
z"/>
<path fill="#292929" opacity="1.000000" stroke="none" 
	d="
M256.370117,58.897049 
	C254.048935,57.841331 252.108017,56.845413 250.079468,55.497169 
	C252.461685,55.035744 254.931534,54.926640 257.704071,54.804165 
	C257.873322,53.007610 258.024231,51.406200 258.136078,50.218880 
	C256.361603,48.761024 254.838272,47.509483 253.314926,46.257942 
	C253.598907,45.822380 253.882889,45.386822 254.166870,44.951260 
	C257.042206,46.021790 261.397614,42.208385 262.876892,47.403870 
	C264.549316,53.277802 262.133026,57.254887 256.370117,58.897049 
z"/>
<path fill="#393939" opacity="1.000000" stroke="none" 
	d="
M123.530731,38.977985 
	C123.976059,42.569420 124.037376,46.311214 124.057610,50.513214 
	C120.602730,47.254452 121.572197,43.213615 123.530731,38.977985 
z"/>
<path fill="#393939" opacity="1.000000" stroke="none" 
	d="
M141.717987,30.788513 
	C138.976776,31.042339 135.950851,31.085934 132.475266,31.070614 
	C135.061050,28.687178 138.193665,28.471708 141.717987,30.788513 
z"/>
<path fill="#393939" opacity="1.000000" stroke="none" 
	d="
M132.448730,34.995316 
	C134.977859,31.280890 138.394379,32.551323 141.943512,34.516266 
	C139.001404,34.934238 135.953674,34.969788 132.448730,34.995316 
z"/>
<path fill="#393939" opacity="1.000000" stroke="none" 
	d="
M127.895813,48.577911 
	C124.453537,46.718788 125.609009,43.935432 127.398041,41.044777 
	C127.829124,43.353527 127.884674,45.742500 127.895813,48.577911 
z"/>
<path fill="#2E2E2E" opacity="1.000000" stroke="none" 
	d="
M68.207085,54.392399 
	C67.988708,52.325512 67.998650,50.018806 68.037247,47.274590 
	C71.319962,49.117439 70.162262,51.620636 68.207085,54.392399 
z"/>
<path fill="#2B2B2B" opacity="1.000000" stroke="none" 
	d="
M91.373291,30.853249 
	C90.101097,31.047195 88.624519,31.065063 86.779747,31.056622 
	C87.997345,30.912600 89.583122,30.794884 91.373291,30.853249 
z"/>
<path fill="#2E2E2E" opacity="1.000000" stroke="none" 
	d="
M63.854759,30.762447 
	C62.341469,30.975071 60.558392,30.999836 58.330753,30.989624 
	C59.785786,30.827959 61.685375,30.701273 63.854759,30.762447 
z"/>
<path fill="#2E2E2E" opacity="1.000000" stroke="none" 
	d="
M58.359818,34.744469 
	C59.518402,31.677084 61.663883,32.688156 63.932564,34.350105 
	C62.275513,34.699783 60.535366,34.698669 58.359818,34.744469 
z"/>
<path fill="#2B2B2B" opacity="1.000000" stroke="none" 
	d="
M93.921402,36.658325 
	C93.243752,35.911377 92.599403,34.815384 91.981964,33.348358 
	C92.657494,34.087975 93.306099,35.198631 93.921402,36.658325 
z"/>
<path fill="#2B2B2B" opacity="1.000000" stroke="none" 
	d="
M85.725288,33.187340 
	C85.594231,34.261906 85.201591,35.557232 84.457146,36.929665 
	C84.558128,35.807209 85.010925,34.607655 85.725288,33.187340 
z"/>
<path fill="#2E2E2E" opacity="1.000000" stroke="none" 
	d="
M58.056026,45.358879 
	C59.192009,45.439991 60.525242,45.823009 61.946579,46.564323 
	C60.774212,46.502003 59.513744,46.081390 58.056026,45.358879 
z"/>
<path fill="#393939" opacity="1.000000" stroke="none" 
	d="
M142.390030,35.100731 
	C143.152466,34.922642 144.159073,34.919624 145.543335,34.936928 
	C145.189316,38.818089 143.771957,35.604561 142.390030,35.100731 
z"/>
<path fill="#393939" opacity="1.000000" stroke="none" 
	d="
M124.004974,51.315735 
	C124.733002,51.970055 125.443932,52.952641 126.109634,54.281952 
	C125.372231,53.633789 124.680054,52.638901 124.004974,51.315735 
z"/>
<path fill="#2E2E2E" opacity="1.000000" stroke="none" 
	d="
M61.605095,55.061760 
	C60.716663,55.331394 59.428020,55.560974 58.066566,55.458355 
	C59.064129,55.091339 60.134506,55.056522 61.605095,55.061760 
z"/>
<path fill="#2E2E2E" opacity="1.000000" stroke="none" 
	d="
M62.329296,47.117188 
	C62.746475,47.367157 63.373955,47.788712 64.028458,48.522724 
	C63.550179,48.319710 63.044888,47.804237 62.329296,47.117188 
z"/>
<path fill="#393939" opacity="1.000000" stroke="none" 
	d="
M128.278534,38.867146 
	C128.399811,38.336407 128.789886,37.651321 129.514938,36.947144 
	C129.415726,37.522964 128.981506,38.117882 128.278534,38.867146 
z"/>
<path fill="#2E2E2E" opacity="1.000000" stroke="none" 
	d="
M66.157089,44.559837 
	C65.528427,44.528931 64.821251,44.156063 64.053696,43.457359 
	C64.688416,43.493641 65.383492,43.855762 66.157089,44.559837 
z"/>
<path fill="#2E2E2E" opacity="1.000000" stroke="none" 
	d="
M54.111210,43.295235 
	C54.671322,43.381477 55.299137,43.784718 55.968822,44.491997 
	C55.400097,44.401436 54.789505,44.006836 54.111210,43.295235 
z"/>
<path fill="#2E2E2E" opacity="1.000000" stroke="none" 
	d="
M62.002857,42.673157 
	C61.480988,42.602970 60.784821,42.277824 60.035629,41.640102 
	C60.597923,41.691078 61.213242,42.054634 62.002857,42.673157 
z"/>
<path fill="#2E2E2E" opacity="1.000000" stroke="none" 
	d="
M52.253731,41.305984 
	C52.827763,41.441418 53.397728,41.896225 53.994934,42.653404 
	C53.431335,42.512306 52.840500,42.068832 52.253731,41.305984 
z"/>
<path fill="#393939" opacity="1.000000" stroke="none" 
	d="
M129.988373,52.640610 
	C129.393906,52.490070 128.739777,52.001949 128.087311,51.166504 
	C128.702209,51.313793 129.315475,51.808411 129.988373,52.640610 
z"/>
<path fill="#2E2E2E" opacity="1.000000" stroke="none" 
	d="
M57.932068,40.678833 
	C57.397285,40.497456 56.738773,40.016392 56.070923,39.191242 
	C56.643833,39.357822 57.226082,39.868484 57.932068,40.678833 
z"/>
<path fill="#393939" opacity="1.000000" stroke="none" 
	d="
M145.858032,32.725731 
	C145.276825,32.651833 144.637558,32.259369 143.979889,31.553520 
	C144.574326,31.629145 145.187149,32.018154 145.858032,32.725731 
z"/>
<path fill="#393939" opacity="1.000000" stroke="none" 
	d="
M130.210083,36.736710 
	C130.389664,36.217941 130.852493,35.590107 131.648956,34.975693 
	C131.486160,35.535286 130.989761,36.081467 130.210083,36.736710 
z"/>
<path fill="#393939" opacity="1.000000" stroke="none" 
	d="
M125.717751,35.129387 
	C125.630806,35.680019 125.250282,36.341442 124.547943,37.020134 
	C124.625473,36.438328 125.024826,35.839249 125.717751,35.129387 
z"/>
<path fill="#2E2E2E" opacity="1.000000" stroke="none" 
	d="
M66.211044,35.105164 
	C66.431145,34.953907 66.793121,34.932812 67.427109,34.909752 
	C67.250381,35.016968 66.801659,35.126148 66.211044,35.105164 
z"/>
<path fill="#2E2E2E" opacity="1.000000" stroke="none" 
	d="
M56.148315,36.774986 
	C56.371212,36.340622 56.739819,35.674297 57.419670,34.955929 
	C57.251953,35.450268 56.772991,35.996647 56.148315,36.774986 
z"/>
<path fill="#2E2E2E" opacity="1.000000" stroke="none" 
	d="
M55.691265,31.223894 
	C55.570503,31.795029 55.129917,32.381340 54.387245,33.003483 
	C54.513924,32.439232 54.942680,31.839151 55.691265,31.223894 
z"/>
<path fill="#393939" opacity="1.000000" stroke="none" 
	d="
M146.231186,34.821487 
	C145.937927,34.510418 145.920547,34.103432 145.928024,33.391685 
	C146.486526,33.377613 147.020187,33.668297 147.553833,33.958988 
	C147.204910,34.214520 146.855988,34.470051 146.231186,34.821487 
z"/>
<path fill="#393939" opacity="1.000000" stroke="none" 
	d="
M127.680969,33.062584 
	C127.573830,33.686825 127.114944,34.312244 126.336456,34.973732 
	C126.454308,34.361122 126.891769,33.712444 127.680969,33.062584 
z"/>
<path fill="#2E2E2E" opacity="1.000000" stroke="none" 
	d="
M68.051590,34.564445 
	C67.903969,34.342957 67.904221,34.008343 67.915070,33.422974 
	C68.016930,33.598583 68.108192,34.024952 68.051590,34.564445 
z"/>
<path fill="#2E2E2E" opacity="1.000000" stroke="none" 
	d="
M53.760262,33.202057 
	C53.660332,33.707203 53.278694,34.323883 52.602280,34.978485 
	C52.697861,34.448803 53.088211,33.881195 53.760262,33.202057 
z"/>
<path fill="#2E2E2E" opacity="1.000000" stroke="none" 
	d="
M67.899513,32.707047 
	C67.280724,32.620380 66.676323,32.192123 66.031754,31.463074 
	C66.632355,31.563339 67.273132,31.964401 67.899513,32.707047 
z"/>
<path fill="#393939" opacity="1.000000" stroke="none" 
	d="
M129.781067,31.414116 
	C129.602463,31.913548 129.154388,32.492153 128.390060,33.056190 
	C128.553055,32.525505 129.032333,32.009399 129.781067,31.414116 
z"/>
<path fill="#DEDEDE" opacity="1.000000" stroke="none" 
	d="
M164.973755,44.569862 
	C162.282532,42.829498 160.757828,34.886295 162.758652,34.357620 
	C165.391846,33.661858 168.686264,34.410366 171.386337,35.391262 
	C173.241547,36.065231 172.018112,42.079937 169.959351,42.952728 
	C168.467377,43.585236 166.900040,44.039963 164.973755,44.569862 
z"/>
<path fill="#F7F7F7" opacity="1.000000" stroke="none" 
	d="
M91.925873,41.177883 
	C92.105232,43.071220 92.284584,44.964558 92.516968,47.417805 
	C89.966423,47.417805 87.376839,47.417805 84.488449,47.417805 
	C85.092690,45.397896 85.612923,43.658810 86.378204,41.393692 
	C86.980820,40.238552 87.338387,39.609432 87.695961,38.980316 
	C87.798950,38.556297 87.901932,38.132278 88.329926,37.243935 
	C89.097649,36.867481 89.540367,36.955349 89.983086,37.043213 
	C89.995682,37.486908 90.008278,37.930603 90.157104,38.993778 
	C90.837517,40.134800 91.381691,40.656342 91.925873,41.177883 
z"/>
<path fill="#2B2B2B" opacity="1.000000" stroke="none" 
	d="
M91.940567,40.856705 
	C91.381691,40.656342 90.837517,40.134800 90.295303,39.296680 
	C90.849930,39.498577 91.402603,40.017052 91.940567,40.856705 
z"/>
<path fill="#2B2B2B" opacity="1.000000" stroke="none" 
	d="
M87.380592,39.030052 
	C87.338387,39.609432 86.980820,40.238552 86.346718,41.017944 
	C86.401871,40.472076 86.733543,39.775928 87.380592,39.030052 
z"/>
<path fill="#2B2B2B" opacity="1.000000" stroke="none" 
	d="
M89.967270,36.725681 
	C89.540367,36.955349 89.097649,36.867481 88.335587,36.910385 
	C88.238907,36.486897 88.461586,35.932640 88.684258,35.378384 
	C89.106659,35.721638 89.529060,36.064892 89.967270,36.725681 
z"/>
</svg>